<?xml version="1.0" encoding="UTF-8" standalone="no"?>
<!DOCTYPE svg PUBLIC "-//W3C//DTD SVG 1.1//EN"
 "http://www.w3.org/Graphics/SVG/1.1/DTD/svg11.dtd">
<!-- Generated by graphviz version 2.40.1 (20161225.0304)
 -->
<!-- Title: dependencies Pages: 1 -->
<svg width="1474pt" height="284pt"
 viewBox="0.00 0.00 1474.00 284.00" xmlns="http://www.w3.org/2000/svg" xmlns:xlink="http://www.w3.org/1999/xlink">
<g id="graph0" class="graph" transform="scale(1 1) rotate(0) translate(4 280)">
<title>dependencies</title>
<polygon fill="#ffffff" stroke="transparent" points="-4,4 -4,-280 1470,-280 1470,4 -4,4"/>
<text text-anchor="start" x="712.0091" y="-42.4" font-family="sans-serif" font-weight="bold" font-size="14.00" fill="#000000">Legend</text>
<polygon fill="#ffffb3" stroke="transparent" points="499,-10 499,-30 519,-30 519,-10 499,-10"/>
<text text-anchor="start" x="522.629" y="-15.4" font-family="sans-serif" font-size="14.00" fill="#000000"> &#160;Declarations</text>
<polygon fill="#8dd3c7" stroke="transparent" points="612,-10 612,-30 632,-30 632,-10 612,-10"/>
<text text-anchor="start" x="635.7251" y="-15.4" font-family="sans-serif" font-size="14.00" fill="#000000"> &#160;Module</text>
<polygon fill="#80b1d3" stroke="transparent" points="698,-10 698,-30 718,-30 718,-10 698,-10"/>
<text text-anchor="start" x="721.7812" y="-15.4" font-family="sans-serif" font-size="14.00" fill="#000000"> &#160;Bootstrap</text>
<polygon fill="#fdb462" stroke="transparent" points="795,-10 795,-30 815,-30 815,-10 795,-10"/>
<text text-anchor="start" x="818.6732" y="-15.4" font-family="sans-serif" font-size="14.00" fill="#000000"> &#160;Providers</text>
<polygon fill="#fb8072" stroke="transparent" points="891,-10 891,-30 911,-30 911,-10 891,-10"/>
<text text-anchor="start" x="914.7258" y="-15.4" font-family="sans-serif" font-size="14.00" fill="#000000"> &#160;Exports</text>
<g id="clust1" class="cluster">
<title>cluster_AppModule</title>
<polygon fill="none" stroke="#000000" stroke-dasharray="1,5" points="8,-70 8,-268 1458,-268 1458,-70 8,-70"/>
</g>
<g id="clust2" class="cluster">
<title>cluster_AppModule_declarations</title>
<polygon fill="none" stroke="#000000" points="684,-78 684,-130 1450,-130 1450,-78 684,-78"/>
</g>
<g id="clust8" class="cluster">
<title>cluster_AppModule_imports</title>
<polygon fill="none" stroke="#000000" points="532,-78 532,-130 676,-130 676,-78 532,-78"/>
</g>
<g id="clust10" class="cluster">
<title>cluster_AppModule_bootstrap</title>
<polygon fill="none" stroke="#000000" points="687,-208 687,-260 811,-260 811,-208 687,-208"/>
</g>
<g id="clust11" class="cluster">
<title>cluster_AppModule_providers</title>
<polygon fill="none" stroke="#000000" points="16,-78 16,-130 524,-130 524,-78 16,-78"/>
</g>
<!-- AppComponent -->
<g id="node1" class="node">
<title>AppComponent</title>
<polygon fill="#ffffb3" stroke="#000000" points="1441.9399,-122 1336.0601,-122 1336.0601,-86 1441.9399,-86 1441.9399,-122"/>
<text text-anchor="middle" x="1389" y="-99.8" font-family="Times,serif" font-size="14.00" fill="#000000">AppComponent</text>
</g>
<!-- AppModule -->
<g id="node6" class="node">
<title>AppModule</title>
<polygon fill="#8dd3c7" stroke="#000000" points="790.6571,-187 787.6571,-191 766.6571,-191 763.6571,-187 707.3429,-187 707.3429,-151 790.6571,-151 790.6571,-187"/>
<text text-anchor="middle" x="749" y="-164.8" font-family="Times,serif" font-size="14.00" fill="#000000">AppModule</text>
</g>
<!-- AppComponent&#45;&gt;AppModule -->
<g id="edge1" class="edge">
<title>AppComponent&#45;&gt;AppModule</title>
<path fill="none" stroke="#000000" d="M1389,-122.0109C1389,-144.4852 1389,-180 1389,-180 1389,-180 800.9922,-180 800.9922,-180"/>
<polygon fill="#000000" stroke="#000000" points="800.9922,-176.5001 790.9922,-180 800.9922,-183.5001 800.9922,-176.5001"/>
</g>
<!-- QuestionsComponent -->
<g id="node2" class="node">
<title>QuestionsComponent</title>
<polygon fill="#ffffb3" stroke="#000000" points="1318.8244,-122 1181.1756,-122 1181.1756,-86 1318.8244,-86 1318.8244,-122"/>
<text text-anchor="middle" x="1250" y="-99.8" font-family="Times,serif" font-size="14.00" fill="#000000">QuestionsComponent</text>
</g>
<!-- QuestionsComponent&#45;&gt;AppModule -->
<g id="edge2" class="edge">
<title>QuestionsComponent&#45;&gt;AppModule</title>
<path fill="none" stroke="#000000" d="M1250,-122.1289C1250,-142.5724 1250,-173 1250,-173 1250,-173 800.8533,-173 800.8533,-173"/>
<polygon fill="#000000" stroke="#000000" points="800.8533,-169.5001 790.8533,-173 800.8532,-176.5001 800.8533,-169.5001"/>
</g>
<!-- QuestionDetailComponent -->
<g id="node3" class="node">
<title>QuestionDetailComponent</title>
<polygon fill="#ffffb3" stroke="#000000" points="1163.087,-122 996.913,-122 996.913,-86 1163.087,-86 1163.087,-122"/>
<text text-anchor="middle" x="1080" y="-99.8" font-family="Times,serif" font-size="14.00" fill="#000000">QuestionDetailComponent</text>
</g>
<!-- QuestionDetailComponent&#45;&gt;AppModule -->
<g id="edge3" class="edge">
<title>QuestionDetailComponent&#45;&gt;AppModule</title>
<path fill="none" stroke="#000000" d="M1080,-122.2667C1080,-140.5552 1080,-166 1080,-166 1080,-166 800.9214,-166 800.9214,-166"/>
<polygon fill="#000000" stroke="#000000" points="800.9214,-162.5001 790.9214,-166 800.9213,-169.5001 800.9214,-162.5001"/>
</g>
<!-- ServerHealthComponent -->
<g id="node4" class="node">
<title>ServerHealthComponent</title>
<polygon fill="#ffffb3" stroke="#000000" points="978.6825,-122 823.3175,-122 823.3175,-86 978.6825,-86 978.6825,-122"/>
<text text-anchor="middle" x="901" y="-99.8" font-family="Times,serif" font-size="14.00" fill="#000000">ServerHealthComponent</text>
</g>
<!-- ServerHealthComponent&#45;&gt;AppModule -->
<g id="edge4" class="edge">
<title>ServerHealthComponent&#45;&gt;AppModule</title>
<path fill="none" stroke="#000000" d="M901,-122.0091C901,-138.0494 901,-159 901,-159 901,-159 800.937,-159 800.937,-159"/>
<polygon fill="#000000" stroke="#000000" points="800.9371,-155.5001 790.937,-159 800.937,-162.5001 800.9371,-155.5001"/>
</g>
<!-- ShareComponent -->
<g id="node5" class="node">
<title>ShareComponent</title>
<polygon fill="#ffffb3" stroke="#000000" points="805.705,-122 692.295,-122 692.295,-86 805.705,-86 805.705,-122"/>
<text text-anchor="middle" x="749" y="-99.8" font-family="Times,serif" font-size="14.00" fill="#000000">ShareComponent</text>
</g>
<!-- ShareComponent&#45;&gt;AppModule -->
<g id="edge5" class="edge">
<title>ShareComponent&#45;&gt;AppModule</title>
<path fill="none" stroke="#000000" d="M749,-122.1061C749,-122.1061 749,-140.991 749,-140.991"/>
<polygon fill="#000000" stroke="#000000" points="745.5001,-140.9909 749,-150.991 752.5001,-140.991 745.5001,-140.9909"/>
</g>
<!-- AppComponent  -->
<g id="node8" class="node">
<title>AppComponent </title>
<polygon fill="#80b1d3" stroke="#000000" points="803.439,-252 694.561,-252 694.561,-216 803.439,-216 803.439,-252"/>
<text text-anchor="middle" x="749" y="-229.8" font-family="Times,serif" font-size="14.00" fill="#000000">AppComponent </text>
</g>
<!-- AppModule&#45;&gt;AppComponent  -->
<g id="edge7" class="edge">
<title>AppModule&#45;&gt;AppComponent </title>
<path fill="none" stroke="#000000" stroke-dasharray="1,5" d="M749,-187.1061C749,-187.1061 749,-205.991 749,-205.991"/>
<polygon fill="#000000" stroke="#000000" points="745.5001,-205.9909 749,-215.991 752.5001,-205.991 745.5001,-205.9909"/>
</g>
<!-- AppRoutingModule -->
<g id="node7" class="node">
<title>AppRoutingModule</title>
<polygon fill="#8dd3c7" stroke="#000000" points="668.2744,-122 665.2744,-126 644.2744,-126 641.2744,-122 539.7256,-122 539.7256,-86 668.2744,-86 668.2744,-122"/>
<text text-anchor="middle" x="604" y="-99.8" font-family="Times,serif" font-size="14.00" fill="#000000">AppRoutingModule</text>
</g>
<!-- AppRoutingModule&#45;&gt;AppModule -->
<g id="edge6" class="edge">
<title>AppRoutingModule&#45;&gt;AppModule</title>
<path fill="none" stroke="#000000" d="M604,-122.0091C604,-138.0494 604,-159 604,-159 604,-159 697.06,-159 697.06,-159"/>
<polygon fill="#000000" stroke="#000000" points="697.06,-162.5001 707.06,-159 697.06,-155.5001 697.06,-162.5001"/>
</g>
<!-- QuestionService -->
<g id="node9" class="node">
<title>QuestionService</title>
<ellipse fill="#fdb462" stroke="#000000" cx="441" cy="-104" rx="74.7168" ry="18"/>
<text text-anchor="middle" x="441" y="-99.8" font-family="Times,serif" font-size="14.00" fill="#000000">QuestionService</text>
</g>
<!-- QuestionService&#45;&gt;AppModule -->
<g id="edge8" class="edge">
<title>QuestionService&#45;&gt;AppModule</title>
<path fill="none" stroke="#000000" d="M441,-122.2667C441,-140.5552 441,-166 441,-166 441,-166 697.1412,-166 697.1412,-166"/>
<polygon fill="#000000" stroke="#000000" points="697.1412,-169.5001 707.1412,-166 697.1412,-162.5001 697.1412,-169.5001"/>
</g>
<!-- ServerHealthService -->
<g id="node10" class="node">
<title>ServerHealthService</title>
<ellipse fill="#fdb462" stroke="#000000" cx="257" cy="-104" rx="90.8646" ry="18"/>
<text text-anchor="middle" x="257" y="-99.8" font-family="Times,serif" font-size="14.00" fill="#000000">ServerHealthService</text>
</g>
<!-- ServerHealthService&#45;&gt;AppModule -->
<g id="edge9" class="edge">
<title>ServerHealthService&#45;&gt;AppModule</title>
<path fill="none" stroke="#000000" d="M257,-122.1289C257,-142.5724 257,-173 257,-173 257,-173 697.0524,-173 697.0524,-173"/>
<polygon fill="#000000" stroke="#000000" points="697.0524,-176.5001 707.0524,-173 697.0523,-169.5001 697.0524,-176.5001"/>
</g>
<!-- ShareService -->
<g id="node11" class="node">
<title>ShareService</title>
<ellipse fill="#fdb462" stroke="#000000" cx="86" cy="-104" rx="61.9538" ry="18"/>
<text text-anchor="middle" x="86" y="-99.8" font-family="Times,serif" font-size="14.00" fill="#000000">ShareService</text>
</g>
<!-- ShareService&#45;&gt;AppModule -->
<g id="edge10" class="edge">
<title>ShareService&#45;&gt;AppModule</title>
<path fill="none" stroke="#000000" d="M86,-122.0109C86,-144.4852 86,-180 86,-180 86,-180 697.2752,-180 697.2752,-180"/>
<polygon fill="#000000" stroke="#000000" points="697.2753,-183.5001 707.2752,-180 697.2752,-176.5001 697.2753,-183.5001"/>
</g>
</g>
</svg>
